<mxfile host="app.diagrams.net" modified="2020-07-31T17:58:24.029Z" agent="5.0 (X11; Linux x86_64) AppleWebKit/537.36 (KHTML, like Gecko) Chrome/83.0.4103.116 Safari/537.36" etag="X9eO_A3atG_t-5rYL2AU" version="13.5.8" type="github">
  <diagram name="Page-1" id="90a13364-a465-7bf4-72fc-28e22215d7a0">
    <mxGraphModel dx="2700" dy="1514" grid="1" gridSize="10" guides="1" tooltips="1" connect="1" arrows="1" fold="1" page="1" pageScale="1.5" pageWidth="1169" pageHeight="826" background="#ffffff" math="0" shadow="0">
      <root>
        <mxCell id="0" style=";html=1;" />
        <mxCell id="1" style=";html=1;" parent="0" />
        <mxCell id="wm3d06uLkGcz_DLgFPOc-1" value="REST API&amp;nbsp;Backend" style="whiteSpace=wrap;html=1;shadow=1;fontSize=18;fillColor=#f5f5f5;strokeColor=#666666;" vertex="1" parent="1">
          <mxGeometry x="792" y="630" width="170" height="100" as="geometry" />
        </mxCell>
        <mxCell id="wm3d06uLkGcz_DLgFPOc-3" value="" style="aspect=fixed;perimeter=ellipsePerimeter;html=1;align=center;shadow=0;dashed=0;spacingTop=3;image;image=img/lib/active_directory/databases.svg;" vertex="1" parent="1">
          <mxGeometry x="832" y="435.90000000000003" width="90" height="88.2" as="geometry" />
        </mxCell>
        <mxCell id="wm3d06uLkGcz_DLgFPOc-5" value="Mobile App&lt;br&gt;(for authorities and schools)" style="whiteSpace=wrap;html=1;shadow=1;fontSize=18;fillColor=#f5f5f5;strokeColor=#666666;" vertex="1" parent="1">
          <mxGeometry x="502" y="635" width="140" height="90" as="geometry" />
        </mxCell>
        <mxCell id="wm3d06uLkGcz_DLgFPOc-6" value="ML system" style="whiteSpace=wrap;html=1;shadow=1;fontSize=18;fillColor=#f5f5f5;strokeColor=#666666;" vertex="1" parent="1">
          <mxGeometry x="1112" y="635" width="140" height="90" as="geometry" />
        </mxCell>
        <mxCell id="wm3d06uLkGcz_DLgFPOc-7" value="" style="endArrow=classic;startArrow=classic;html=1;entryX=0;entryY=0.5;entryDx=0;entryDy=0;exitX=1;exitY=0.5;exitDx=0;exitDy=0;" edge="1" parent="1" source="wm3d06uLkGcz_DLgFPOc-5" target="wm3d06uLkGcz_DLgFPOc-1">
          <mxGeometry width="50" height="50" relative="1" as="geometry">
            <mxPoint x="632" y="660" as="sourcePoint" />
            <mxPoint x="682" y="610" as="targetPoint" />
          </mxGeometry>
        </mxCell>
        <mxCell id="wm3d06uLkGcz_DLgFPOc-8" value="" style="endArrow=classic;startArrow=classic;html=1;entryX=0;entryY=0.5;entryDx=0;entryDy=0;exitX=1;exitY=0.5;exitDx=0;exitDy=0;" edge="1" parent="1">
          <mxGeometry width="50" height="50" relative="1" as="geometry">
            <mxPoint x="962" y="679.76" as="sourcePoint" />
            <mxPoint x="1112" y="679.76" as="targetPoint" />
          </mxGeometry>
        </mxCell>
        <mxCell id="wm3d06uLkGcz_DLgFPOc-9" value="" style="endArrow=classic;startArrow=classic;html=1;entryX=0.5;entryY=1;entryDx=0;entryDy=0;" edge="1" parent="1" target="wm3d06uLkGcz_DLgFPOc-3">
          <mxGeometry width="50" height="50" relative="1" as="geometry">
            <mxPoint x="877" y="629" as="sourcePoint" />
            <mxPoint x="872" y="524" as="targetPoint" />
          </mxGeometry>
        </mxCell>
        <mxCell id="wm3d06uLkGcz_DLgFPOc-10" value="&lt;font style=&quot;font-size: 18px&quot;&gt;Database&lt;/font&gt;" style="text;html=1;resizable=0;autosize=1;align=center;verticalAlign=middle;points=[];fillColor=none;strokeColor=none;rounded=0;" vertex="1" parent="1">
          <mxGeometry x="832" y="410" width="90" height="20" as="geometry" />
        </mxCell>
      </root>
    </mxGraphModel>
  </diagram>
</mxfile>
